<?xml version="1.0" encoding="UTF-8"?>
<svg width="16px" height="17px" viewBox="0 0 16 17" version="1.1" xmlns="http://www.w3.org/2000/svg" xmlns:xlink="http://www.w3.org/1999/xlink">
    <!-- Generator: Sketch 59.1 (86144) - https://sketch.com -->
    <title>审核</title>
    <desc>Created with Sketch.</desc>
    <g id="页面-1" stroke="none" stroke-width="1" fill="none" fill-rule="evenodd">
        <g id="画板" transform="translate(-98.000000, -51.000000)" fill="#17D3CF">
            <g id="审核" transform="translate(98.000000, 51.000000)">
                <path d="M4.00373321,4.22343841 C4.00203231,4.14836441 4,4.07441954 4,4 C4,1.790861 5.790861,1.14575016e-13 8,1.14575016e-13 C10.209139,1.14575016e-13 12,1.790861 12,4 C12,4.0713612 11.9981313,4.14228595 11.9944402,4.21272797 L12,4 C12,7.01062012 10,8.1439209 10,10 L14,10 C15.1045695,10 16,10.8954305 16,12 L16,15 L0,15 L0,12 C-1.3527075e-16,10.8954305 0.8954305,10 2,10 L6,10 C6,8.463954 4.0993576,7.07175545 4.00373321,4.22343841 Z" id="合并形状"></path>
                <rect id="矩形" x="1" y="16" width="14" height="1"></rect>
            </g>
        </g>
    </g>
</svg>