<?xml version="1.0" encoding="UTF-8"?>
<svg width="14px" height="15px" viewBox="0 0 14 15" version="1.1" xmlns="http://www.w3.org/2000/svg" xmlns:xlink="http://www.w3.org/1999/xlink">
    <!-- Generator: Sketch 59.1 (86144) - https://sketch.com -->
    <title>并发</title>
    <desc>Created with Sketch.</desc>
    <g id="页面-1" stroke="none" stroke-width="1" fill="none" fill-rule="evenodd">
        <g id="画板" transform="translate(-239.000000, -52.000000)" fill="#03BCFF">
            <g id="并发" transform="translate(238.000000, 52.000000)">
                <path d="M8.44898796,0.225609014 L14.2129156,3.12188721 C14.7064029,3.36985641 14.9054346,3.97092567 14.6574654,4.46441297 C14.5603172,4.65774915 14.4030822,4.81436059 14.2093615,4.91073983 L8.44543394,7.77838924 C8.16487995,7.9179695 7.83512005,7.9179695 7.55456606,7.77838924 L1.79063845,4.91073983 C1.29616974,4.66473345 1.09475121,4.06445979 1.34075758,3.56999108 C1.43713682,3.37627041 1.59374826,3.21903543 1.78708444,3.12188721 L7.55101204,0.225609014 C7.83350809,0.0836594259 8.16649191,0.0836594259 8.44898796,0.225609014 Z" id="矩形"></path>
                <path d="M1.55222765,8.02381088 C1.21375077,7.854308 1,7.50821028 1,7.12966328 L1,6.74726562 L8,10.2527344 L15,6.74726562 L15,7.12966328 C15,7.50821028 14.7862492,7.854308 14.4477724,8.02381088 L14.4477724,8.02381088 L8,11.2527344 L1.55222765,8.02381088 Z" id="合并形状"></path>
                <path d="M1.55222765,11.2765453 C1.21375077,11.1070424 1,10.7609447 1,10.3823977 L1,10 L8,13.5054688 L15,10 L15,10.3823977 C15,10.7609447 14.7862492,11.1070424 14.4477724,11.2765453 L14.4477724,11.2765453 L8,14.5054688 L1.55222765,11.2765453 Z" id="合并形状-copy"></path>
            </g>
        </g>
    </g>
</svg>