<?xml version="1.0" encoding="UTF-8"?>
<svg width="54px" height="48px" viewBox="0 0 54 48" version="1.1" xmlns="http://www.w3.org/2000/svg" xmlns:xlink="http://www.w3.org/1999/xlink">
    <!-- Generator: Sketch 59.1 (86144) - https://sketch.com -->
    <title>空状态</title>
    <desc>Created with Sketch.</desc>
    <g id="页面-1" stroke="none" stroke-width="1" fill="none" fill-rule="evenodd">
        <g id="画板" transform="translate(-52.000000, -187.000000)" fill="#EEEEEE" fill-rule="nonzero">
            <g id="空状态" transform="translate(52.000000, 187.000000)">
                <path d="M53.8955832,19.8373812 L53.8811656,19.7866948 L45.7929444,1.72333685 C45.4325068,0.703273495 44.3584025,0 43.1401232,0 L10.3547131,0 C9.12922506,0 8.0407033,0.71594509 7.69468315,1.74868004 L0.132700916,19.6282999 L0.111074656,19.6726505 L0.0966571498,19.7233369 C0.00294335672,20.0337909 -0.0258916566,20.3505808 0.0245696167,20.6610348 C0.0173608634,20.7624076 0.01015211,20.8637804 0.01015211,20.9651531 L0.01015211,44.1478353 C0.01015211,46.2703273 1.97814177,48 4.39307413,48 L49.6063749,48 C52.0213073,48 53.9892969,46.2703273 53.9965057,44.1478353 L53.9965057,20.9651531 C53.9965057,20.8827878 53.9965057,20.8004224 53.9892969,20.7307286 C54.018132,20.4202746 53.9892969,20.1224921 53.8955832,19.8373812 Z M32.5720908,17.1129884 L32.5504646,18.1077086 C32.4927946,20.9524815 30.258081,22.8658923 26.9925158,22.8658923 C25.3993813,22.8658923 24.0297182,22.4160507 23.042119,21.5607181 C22.0545198,20.7053854 21.5138633,19.5142555 21.4850282,18.1077086 L21.463402,17.1129884 L6.62778765,17.1129884 L12.3587465,4.86589229 L41.1360898,4.86589229 L47.0256412,17.1129884 L32.5720908,17.1129884 Z M5.5392659,21.9788807 L16.8786349,21.9788807 C18.6303619,25.5966209 22.3572874,27.7317846 26.9997245,27.7317846 C29.4290744,27.7317846 31.6854142,27.1362196 33.5092288,26.0084477 C35.109572,25.0200634 36.3566863,23.6388596 37.1640667,21.9788807 L48.4457656,21.9788807 L48.4457656,43.1341077 L5.5392659,43.1341077 L5.5392659,21.9788807 Z" id="Shape"></path>
            </g>
        </g>
    </g>
</svg>