<?xml version="1.0" encoding="UTF-8"?>
<svg width="16px" height="12px" viewBox="0 0 16 12" version="1.1" xmlns="http://www.w3.org/2000/svg" xmlns:xlink="http://www.w3.org/1999/xlink">
    <!-- Generator: Sketch 59.1 (86144) - https://sketch.com -->
    <title>直播-顶部</title>
    <desc>Created with Sketch.</desc>
    <g id="页面-1" stroke="none" stroke-width="1" fill="none" fill-rule="evenodd">
        <g id="画板" transform="translate(-325.000000, -54.000000)" fill="#FFFFFF">
            <g id="直播-顶部" transform="translate(325.000000, 54.000000)">
                <path d="M11,0 C11.5522847,-1.01453063e-16 12,0.44771525 12,1 L12,2.499 L14.6488766,1.50667129 C15.1659969,1.31275117 15.7424091,1.5747567 15.9363292,2.09187703 C15.9784331,2.20415408 16,2.32308852 16,2.44300047 L16,9.55699953 C16,10.1092843 15.5522847,10.5569995 15,10.5569995 C14.880088,10.5569995 14.7611536,10.5354326 14.6488766,10.4933287 L12,9.5 L12,11 C12,11.5522847 11.5522847,12 11,12 L1,12 C0.44771525,12 6.76353751e-17,11.5522847 0,11 L0,1 C-6.76353751e-17,0.44771525 0.44771525,1.01453063e-16 1,0 L11,0 Z M5,3 L5,9 L9,6 L5,3 Z" id="形状结合"></path>
            </g>
        </g>
    </g>
</svg>