<?xml version="1.0" encoding="UTF-8"?>
<svg width="181px" height="22px" viewBox="0 0 181 22" version="1.1" xmlns="http://www.w3.org/2000/svg" xmlns:xlink="http://www.w3.org/1999/xlink">
    <!-- Generator: Sketch 52.3 (67297) - http://www.bohemiancoding.com/sketch -->
    <title>分组 3</title>
    <desc>Created with Sketch.</desc>
    <defs>
        <linearGradient x1="26.7940417%" y1="50%" x2="219.543781%" y2="50%" id="linearGradient-1">
            <stop stop-color="#FFFFFF" offset="0%"></stop>
            <stop stop-color="#041437" offset="100%"></stop>
        </linearGradient>
        <linearGradient x1="50%" y1="36.4178233%" x2="50%" y2="146.612537%" id="linearGradient-2">
            <stop stop-color="#FFFFFF" offset="0%"></stop>
            <stop stop-color="#041437" offset="100%"></stop>
        </linearGradient>
    </defs>
    <g id="组件" stroke="none" stroke-width="1" fill="none" fill-rule="evenodd">
        <g id="头部" transform="translate(-24.000000, -19.000000)">
            <g id="分组-9">
                <g id="分组-3" transform="translate(24.000000, 18.000000)">
                    <text id="客户自助管理系统" font-family="AlibabaPuHuiTi-Medium, Alibaba PuHuiTi" font-size="18" font-weight="400" line-spacing="24" fill="#FFFFFF">
                        <tspan x="40" y="19">客户自助管理系统</tspan>
                    </text>
                    <g id="分组-2" transform="translate(0.000000, 1.000000)">
                        <path d="M11.2645723,16.7006412 L11.2645723,19.6199825 C11.2620324,19.6862149 11.2326915,19.7193312 11.1765708,19.7193312 C7.62670294,19.7193312 3.78232077,19.7193312 0.260243372,19.7193312 C0.0636507566,19.7193312 0.0145119013,19.6490091 0.00348328883,19.484427 L0.00135365505,17.3134839 C-0.0107780312,17.0508142 0.0590461143,16.9691837 0.194265107,16.7967597 C3.66523342,12.3707617 4.52665116,11.2960094 6.4995592,8.77729319 C8.47245661,6.258577 7.52743693,4.35953881 6.02863808,4.22970786 C4.52983923,4.09986616 3.62130176,5.25099599 4.22328461,7.57768354 C4.27280604,7.76904616 4.1957609,7.80865287 4.08023571,7.85520983 C3.16625725,8.2131097 1.96806195,8.75695809 0.572824515,9.29583282 C0.494686934,9.29020387 0.456532058,9.24535494 0.456532058,9.16253211 C-0.503496011,2.96685852 3.27866876,1.10670732 5.8470241,1.10670732 C11.4824453,1.10670732 12.4640003,7.04662918 10.1334009,10.3172928 C8.22652854,12.9933187 7.35392066,14.1024677 5.60781224,16.3476742 C5.57501758,16.3898472 5.51598507,16.4825766 5.51598507,16.6059471 L11.1765708,16.6059471 C11.2382282,16.6113505 11.2675691,16.6429155 11.2645723,16.7006412 Z" id="路径" fill="#FFFFFF"></path>
                        <polygon id="矩形" fill="url(#linearGradient-1)" fill-rule="nonzero" transform="translate(24.562580, 8.869383) rotate(31.000000) translate(-24.562580, -8.869383) " points="19.0507011 6.76753859 30.0744589 6.92643224 28.0423381 10.9712283 21.5312419 10.8958516"></polygon>
                        <polygon id="矩形" fill="url(#linearGradient-2)" fill-rule="nonzero" transform="translate(21.777909, 14.374002) rotate(-301.000000) translate(-21.777909, -14.374002) " points="19.6103956 6.30189144 23.7236339 4.12899241 23.9454223 24.6190119 19.8585517 22.1633723"></polygon>
                        <path d="M18.1705298,0.115012098 L18.1411926,19.0307431 L14.1064906,21.5189187 C14.1064906,12.6229895 14.1064906,6.8682941 14.1064906,4.25483251 C14.1064906,4.08067421 13.9796585,4.01724253 13.7771731,4.07236221 C13.2319873,4.2838217 12.8062661,4.44554626 12.5,4.55753591 C12.5,3.4105626 12.5,2.68969321 12.5,2.39494686 C12.5,2.2080679 12.5746713,2.12517318 12.746197,2.04725196 C14.2183694,1.4837362 15.974824,0.803907676 18.0155797,0.00776639648 C18.0742256,-0.0151116662 18.1401584,0.0142701936 18.1628539,0.0733782319 C18.1679585,0.0866536294 18.1705582,0.100770695 18.1705298,0.115012098 Z" id="路径" fill="#FFFFFF"></path>
                    </g>
                </g>
            </g>
        </g>
    </g>
</svg>